<svg xmlns="http://www.w3.org/2000/svg" version="1.1" xmlns:xlink="http://www.w3.org/1999/xlink" xmlns:svgjs="http://svgjs.dev/svgjs" width="2000" height="1250" viewBox="0 0 2000 1250"><g transform="matrix(1,0,0,1,0,0)"><svg viewBox="0 0 576 360" data-background-color="#ffffff" preserveAspectRatio="xMidYMid meet" height="1250" width="2000" xmlns="http://www.w3.org/2000/svg" xmlns:xlink="http://www.w3.org/1999/xlink"><g id="tight-bounds" transform="matrix(1,0,0,1,0,0)"><svg viewBox="0 0 576 360" height="360" width="576"><g><svg></svg></g><g><svg viewBox="0 0 576 360" height="360" width="576"><g><path d="M132.115 90l155.885-90 155.885 90v180l-155.885 90-155.885-90zM135.768 267.891l152.232 87.892 152.232-87.892v-175.782l-152.232-87.892-152.232 87.892z" fill="#f9858b" fill-rule="nonzero" stroke="none" stroke-width="1" stroke-linecap="butt" stroke-linejoin="miter" stroke-miterlimit="10" stroke-dasharray="" stroke-dashoffset="0" font-family="none" font-weight="none" font-size="none" text-anchor="none" style="mix-blend-mode: normal" data-fill-palette-color="tertiary"></path></g><g transform="matrix(1,0,0,1,199.09218004612515,99)"><svg viewBox="0 0 177.8156399077497 162" height="162" width="177.8156399077497"><g><svg viewBox="0 0 177.8156399077497 162" height="162" width="177.8156399077497"><g><svg viewBox="0 0 230.4 209.90729510274807" height="162" width="177.8156399077497"><g transform="matrix(1,0,0,1,0,157.431468367769)"><svg viewBox="0 0 230.4 52.47582673497905" height="52.47582673497905" width="230.4"><g id="textblocktransform"><svg viewBox="0 0 230.4 52.47582673497905" height="52.47582673497905" width="230.4" id="textblock"><g><svg viewBox="0 0 230.4 52.47582673497905" height="52.47582673497905" width="230.4"><g transform="matrix(1,0,0,1,0,0)"><svg width="230.4" viewBox="1.2 -38.85 214.68 48.9" height="52.47582673497905" data-palette-color="#f9858b"><path d="M25.2-34.25L25.2-34.25 23.25-29.8Q21.2-30.55 19.18-31 17.15-31.45 15.3-31.45L15.3-31.45Q12.15-31.45 10.28-30.15 8.4-28.85 8.4-26.85L8.4-26.85Q8.4-25.15 9.75-24.13 11.1-23.1 13.1-22.28 15.1-21.45 17.45-20.63 19.8-19.8 21.8-18.5 23.8-17.2 25.15-15.23 26.5-13.25 26.5-10.15L26.5-10.15Q26.5-7.75 25.63-5.83 24.75-3.9 23.03-2.5 21.3-1.1 18.73-0.35 16.15 0.4 12.7 0.4L12.7 0.4Q10.5 0.4 8.72 0.1 6.95-0.2 5.53-0.68 4.1-1.15 3.03-1.7 1.95-2.25 1.2-2.7L1.2-2.7 3.6-7.45Q5.6-6.3 8.05-5.6 10.5-4.9 12.5-4.9L12.5-4.9Q13.5-4.9 14.98-5.15 16.45-5.4 17.8-6.03 19.15-6.65 20.13-7.7 21.1-8.75 21.1-10.35L21.1-10.35Q21.1-11.8 20.33-12.83 19.55-13.85 18.28-14.63 17-15.4 15.38-16.03 13.75-16.65 12.05-17.32 10.35-18 8.72-18.75 7.1-19.5 5.83-20.58 4.55-21.65 3.78-23.08 3-24.5 3-26.5L3-26.5Q3-28.35 3.75-30.15 4.5-31.95 6-33.35 7.5-34.75 9.73-35.6 11.95-36.45 14.9-36.45L14.9-36.45Q16.7-36.45 18.43-36.15 20.15-35.85 21.55-35.48 22.95-35.1 23.93-34.75 24.9-34.4 25.2-34.25ZM50.3-20.9L50.3 0.45 46.7 0.45 46.2-5.35Q45.05-2.8 42.97-1.15 40.9 0.5 37.7 0.5L37.7 0.5Q34.5 0.5 32.62-1.23 30.75-2.95 30.65-5.75L30.65-5.75 30.65-20.9 34.9-20.9 34.9-7.65Q35-6.1 36.02-5 37.05-3.9 39.2-3.75L39.2-3.75Q40.7-3.75 41.95-4.28 43.2-4.8 44.1-5.7 45-6.6 45.5-7.85 46-9.1 46-10.6L46-10.6 46-20.9 50.3-20.9ZM54.9-10.4L54.9-10.4Q54.9-12.75 55.75-14.78 56.59-16.8 58.05-18.28 59.5-19.75 61.45-20.6 63.4-21.45 65.59-21.45L65.59-21.45Q67.3-21.45 68.62-21 69.95-20.55 70.84-19.95 71.75-19.35 72.27-18.78 72.8-18.2 72.95-17.95L72.95-17.95Q72.95-18.65 73.05-19.43 73.15-20.2 73.15-20.9L73.15-20.9 77.25-20.9 77.25-0.95Q77.25 4.25 74.2 7.15 71.15 10.05 65.95 10.05L65.95 10.05Q64.15 10.05 62.72 9.68 61.3 9.3 60.12 8.7 58.95 8.1 57.97 7.3 57 6.5 56.05 5.65L56.05 5.65 58.8 2.75Q60.34 4.2 61.97 5.05 63.59 5.9 65.84 5.9L65.84 5.9Q69.2 5.9 71.05 4.3 72.9 2.7 72.95-0.15L72.95-0.15 72.95-1.6Q72.95-2 73.05-2.48 73.15-2.95 73.15-3.2L73.15-3.2Q72.7-2.6 72.02-1.93 71.34-1.25 70.45-0.73 69.55-0.2 68.34 0.15 67.15 0.5 65.65 0.5L65.65 0.5Q63.3 0.5 61.34-0.35 59.4-1.2 57.95-2.68 56.5-4.15 55.7-6.13 54.9-8.1 54.9-10.4ZM59.2-10.5L59.2-10.5Q59.2-9.05 59.72-7.8 60.25-6.55 61.15-5.65 62.05-4.75 63.3-4.23 64.55-3.7 66.05-3.7L66.05-3.7Q67.55-3.7 68.82-4.23 70.09-4.75 71.02-5.68 71.95-6.6 72.45-7.83 72.95-9.05 72.95-10.5L72.95-10.5Q72.95-11.95 72.45-13.18 71.95-14.4 71.02-15.3 70.09-16.2 68.82-16.73 67.55-17.25 66.05-17.25L66.05-17.25Q64.55-17.25 63.3-16.73 62.05-16.2 61.15-15.3 60.25-14.4 59.72-13.18 59.2-11.95 59.2-10.5ZM81.79-10.25L81.79-10.25Q81.79-12.55 82.67-14.58 83.54-16.6 85.04-18.13 86.54-19.65 88.52-20.55 90.49-21.45 92.74-21.45L92.74-21.45Q94.24-21.45 95.49-21.08 96.74-20.7 97.64-20.15 98.54-19.6 99.09-19 99.64-18.4 99.84-17.95L99.84-17.95 100.04-20.9 104.14-20.9 104.14 0 99.84 0 99.84-2.65Q99.59-2.25 99.04-1.7 98.49-1.15 97.62-0.68 96.74-0.2 95.54 0.15 94.34 0.5 92.79 0.5L92.79 0.5Q90.39 0.5 88.37-0.38 86.34-1.25 84.89-2.73 83.44-4.2 82.62-6.15 81.79-8.1 81.79-10.25ZM86.09-10.5L86.09-10.5Q86.09-9.05 86.62-7.8 87.14-6.55 88.04-5.65 88.94-4.75 90.19-4.23 91.44-3.7 92.94-3.7L92.94-3.7Q94.44-3.7 95.72-4.23 96.99-4.75 97.92-5.68 98.84-6.6 99.34-7.83 99.84-9.05 99.84-10.5L99.84-10.5Q99.84-11.95 99.34-13.18 98.84-14.4 97.92-15.3 96.99-16.2 95.72-16.73 94.44-17.25 92.94-17.25L92.94-17.25Q91.44-17.25 90.19-16.73 88.94-16.2 88.04-15.3 87.14-14.4 86.62-13.18 86.09-11.95 86.09-10.5ZM122.59-21.45L121.64-15.95Q120.24-15.95 118.94-15.58 117.64-15.2 116.62-14.45 115.59-13.7 114.99-12.58 114.39-11.45 114.39-10L114.39-10 114.39 0 110.14 0 110.14-20.9 113.89-20.9Q113.99-19.35 114.07-18.07 114.14-16.8 114.24-15.55L114.24-15.55Q114.89-16.9 115.94-18 116.99-19.1 118.19-19.85 119.39-20.6 120.54-21.03 121.69-21.45 122.59-21.45L122.59-21.45ZM153.09 0L147.69 0Q147.44-0.55 146.99-1.6 146.54-2.65 145.96-4.03 145.39-5.4 144.71-7.03 144.04-8.65 143.34-10.4L143.34-10.4 130.54-10.4 126.24 0 120.84 0 136.99-37.95Q137.29-37.25 138.06-35.4 138.84-33.55 139.91-30.98 140.99-28.4 142.31-25.28 143.64-22.15 145.01-18.95 146.39-15.75 147.71-12.65 149.04-9.55 150.14-6.95 151.24-4.35 152.01-2.53 152.79-0.7 153.09 0L153.09 0ZM136.44-24.7L132.44-15 141.49-15Q140.79-16.65 140.16-18.18 139.54-19.7 139.01-20.98 138.49-22.25 138.09-23.2 137.69-24.15 137.49-24.7L137.49-24.7Q137.44-24.8 137.26-25.4 137.09-26 136.99-26.5L136.99-26.5Q136.89-26 136.69-25.4 136.49-24.8 136.44-24.7L136.44-24.7ZM157.59 0L157.59-36.25 163.04-36.25 163.04 0 157.59 0ZM168.08-10.45L168.08-10.45Q168.08-12.9 168.91-14.93 169.73-16.95 171.18-18.4 172.63-19.85 174.61-20.65 176.58-21.45 178.88-21.45L178.88-21.45Q180.43-21.45 181.66-21.08 182.88-20.7 183.76-20.18 184.63-19.65 185.23-19 185.83-18.35 186.13-17.85L186.13-17.85 186.13-38.85 190.43-38.85 190.43 0 186.13 0 186.13-1.55Q186.13-1.85 186.18-2.23 186.23-2.6 186.23-2.85L186.23-2.85Q185.73-2.25 185.06-1.68 184.38-1.1 183.48-0.6 182.58-0.1 181.41 0.2 180.23 0.5 178.73 0.5L178.73 0.5Q176.23 0.5 174.26-0.38 172.28-1.25 170.91-2.73 169.53-4.2 168.81-6.2 168.08-8.2 168.08-10.45ZM172.38-10.5L172.38-10.5Q172.38-9.05 172.91-7.8 173.43-6.55 174.33-5.65 175.23-4.75 176.48-4.23 177.73-3.7 179.23-3.7L179.23-3.7Q180.73-3.7 182.01-4.23 183.28-4.75 184.21-5.68 185.13-6.6 185.63-7.83 186.13-9.05 186.13-10.5L186.13-10.5Q186.13-11.95 185.63-13.18 185.13-14.4 184.21-15.3 183.28-16.2 182.01-16.73 180.73-17.25 179.23-17.25L179.23-17.25Q177.73-17.25 176.48-16.73 175.23-16.2 174.33-15.3 173.43-14.4 172.91-13.18 172.38-11.95 172.38-10.5ZM210.93-5.55L214.13-2.45Q212.63-1.1 210.48-0.3 208.33 0.5 206.08 0.5L206.08 0.5Q203.78 0.5 201.75-0.38 199.73-1.25 198.23-2.73 196.73-4.2 195.86-6.2 194.98-8.2 194.98-10.45L194.98-10.45Q194.98-12.7 195.86-14.7 196.73-16.7 198.23-18.2 199.73-19.7 201.71-20.58 203.68-21.45 205.93-21.45L205.93-21.45Q209.48-21.45 212.11-19.33 214.73-17.2 215.88-13.75L215.88-13.75Q214.33-13.2 212.33-12.4 210.33-11.6 208.18-10.73 206.03-9.85 203.88-9 201.73-8.15 199.88-7.45L199.88-7.45Q200.73-5.75 202.36-4.73 203.98-3.7 205.98-3.7L205.98-3.7Q207.33-3.7 208.71-4.2 210.08-4.7 210.93-5.55L210.93-5.55ZM210.53-14.75L210.53-14.75Q209.93-16 208.63-16.63 207.33-17.25 205.98-17.25L205.98-17.25Q204.53-17.25 203.31-16.7 202.08-16.15 201.18-15.23 200.28-14.3 199.75-13.1 199.23-11.9 199.23-10.65L199.23-10.65Q199.23-10.4 199.25-10.3 199.28-10.2 199.28-10.15L199.28-10.15Q200.58-10.65 202.11-11.28 203.63-11.9 205.13-12.53 206.63-13.15 208.03-13.73 209.43-14.3 210.53-14.75Z" opacity="1" transform="matrix(1,0,0,1,0,0)" fill="#f9858b" class="undefined-text-0" data-fill-palette-color="primary" id="text-0"></path></svg></g></svg></g></svg></g></svg></g><g transform="matrix(1,0,0,1,62.53989600330879,0)"><svg viewBox="0 0 105.32020799338243 145.0431850954821" height="145.0431850954821" width="105.32020799338243"><g><svg version="1.0" xmlns="http://www.w3.org/2000/svg" xmlns:xlink="http://www.w3.org/1999/xlink" x="0" y="0" viewBox="0 0 72.613 100" enable-background="new 0 0 72.613 100" xml:space="preserve" width="105.32020799338243" height="145.0431850954821" class="icon-icon-0" data-fill-palette-color="accent" id="icon-0"><circle cx="23.177" cy="18.7" r="4.2" fill="#f9858b" data-fill-palette-color="accent"></circle><circle cx="49.436" cy="18.7" r="4.2" fill="#f9858b" data-fill-palette-color="accent"></circle><path d="M0 0v39.225h31.896v3.34L0 42.567V100h18.544l14.114-14.114-8.111-8.11 8.111-8.111-2.371-2.37-10.48 10.481 4.598 4.599-9.279 9.28H8.346V50.912h55.921v40.742h-6.778l-9.28-9.28 4.599-4.599L42.325 67.294l-2.371 2.37 8.112 8.111-8.112 8.11L54.069 100h18.544V42.567l-31.896-0.001v-3.34h31.896V0H0zM64.267 30.879H8.346V7.75h55.921V30.879z" fill="#f9858b" data-fill-palette-color="accent"></path><rect x="31.486" y="72.954" transform="matrix(0.7071 -0.7071 0.7071 0.7071 -44.3617 48.4522)" width="9.641" height="9.642" fill="#f9858b" data-fill-palette-color="accent"></rect></svg></g></svg></g><g></g></svg></g></svg></g></svg></g></svg></g><defs></defs></svg><rect width="576" height="360" fill="none" stroke="none" visibility="hidden"></rect></g></svg></g></svg>